<svg width="237" height="237" viewBox="0 0 237 237" fill="none" xmlns="http://www.w3.org/2000/svg">
<rect x="118.494" width="167.575" height="167.575" rx="38.0916" transform="rotate(45 118.494 0)" fill="#EA6224"/>
<path d="M106.156 162.428C97.6404 162.679 89.5001 162.178 80.8589 162.303C76.9766 162.303 64.8287 164.557 62.9502 159.298C62.4493 157.92 62.9502 155.415 62.825 153.787C62.825 153.036 63.4511 149.529 63.3259 146.148C63.2007 142.766 62.6997 141.639 62.5745 138.508C62.5745 137.757 62.825 132.372 62.6997 130.744C62.5745 127.989 62.4493 127.112 62.4493 124.482C62.4493 122.729 62.1988 118.972 62.1988 117.218V104.069C62.1988 100.437 62.5745 100.562 62.4493 95.0517C62.4493 91.7956 61.8231 85.6591 61.6978 82.403C61.6978 80.3992 60.8212 77.644 62.6997 76.1412C64.453 74.8888 67.8344 75.515 69.7129 75.3898C72.7186 75.3898 75.7242 75.6403 78.6046 75.6403C80.4831 75.6403 82.3617 74.8888 84.115 75.0141C88.7487 75.1393 86.9954 81.6516 86.9954 84.9077C87.1206 90.0423 86.3692 95.4274 86.6197 100.562C86.7449 104.945 87.6216 108.702 87.7468 113.211C87.872 117.469 87.4963 115.966 87.4963 120.349C87.4963 122.729 86.9954 132.497 87.872 134.751C89.2496 138.007 94.259 136.755 96.889 136.63H107.158C109.037 136.505 111.917 136.379 112.794 138.759C113.17 140.011 112.669 142.015 112.669 143.393L112.543 149.78C112.669 151.658 112.794 153.411 112.794 155.29C112.794 156.668 113.295 158.797 113.044 160.049C112.418 163.055 108.411 162.428 106.156 162.428Z" fill="white"/>
<path d="M170.364 162.428C161.848 162.679 153.708 162.178 145.066 162.303C141.184 162.303 129.036 164.557 127.158 159.298C126.657 157.92 127.158 155.415 127.033 153.787C127.033 153.036 127.659 149.529 127.534 146.148C127.408 142.766 126.907 141.639 126.782 138.508C126.782 137.757 127.033 132.372 126.907 130.744C126.782 127.989 126.657 127.112 126.657 124.482C126.657 122.729 126.406 118.972 126.406 117.218V104.069C126.406 100.437 126.782 100.562 126.657 95.0517C126.657 91.7956 126.031 85.6591 125.905 82.403C125.905 80.3992 125.029 77.644 126.907 76.1412C128.661 74.8888 132.042 75.515 133.921 75.3898C136.926 75.3898 139.932 75.6403 142.812 75.6403C144.691 75.6403 146.569 74.8888 148.323 75.0141C152.956 75.1393 151.203 81.6516 151.203 84.9077C151.328 90.0423 150.577 95.4274 150.827 100.562C150.953 104.945 151.829 108.702 151.954 113.211C152.08 117.469 151.704 115.966 151.704 120.349C151.704 122.729 151.203 132.497 152.08 134.751C153.457 138.007 158.467 136.755 161.097 136.63H171.366C173.244 136.505 176.125 136.379 177.001 138.759C177.377 140.011 176.876 142.015 176.876 143.393L176.751 149.78C176.876 151.658 177.001 153.411 177.001 155.29C177.001 156.668 177.502 158.797 177.252 160.049C176.626 163.055 172.618 162.428 170.364 162.428Z" fill="white"/>
</svg>
